<svg width="184" height="36" viewBox="0 0 184 36" fill="none" xmlns="http://www.w3.org/2000/svg">
<g clip-path="url(#clip0_5_1305)">
<path d="M0 35.6291V0.695012H9.42351C16.346 0.695012 19.8071 3.71737 19.8071 9.7621C19.8071 14.1567 17.3212 16.934 12.3493 18.0937C14.1482 18.7358 15.4449 19.6975 16.2397 20.9787C17.2135 22.7184 18.0371 25.5115 18.7106 29.3581L19.2589 31.8765C19.6244 33.8302 19.8838 35.081 20.0369 35.6291H15.5527C15.2493 33.9501 14.8072 31.28 14.2262 27.6185C13.3163 22.3981 11.1663 19.727 7.77634 19.6056H4.07016V35.6291H0ZM4.07016 15.8964H7.86737C13.0516 15.8964 15.6437 13.8517 15.6437 9.7621C15.6437 6.19021 13.3565 4.40428 8.78197 4.40428H4.07016V15.8964Z" fill="#3E66FB"/>
<path d="M33.492 0.0547626C40.1399 0.0547626 43.4638 6.03726 43.4638 18.0022C43.4638 29.9672 40.0785 35.9497 33.3077 35.9497C26.537 35.9497 23.1516 30.0128 23.1516 18.1389C23.1516 6.08278 26.5984 0.0547626 33.492 0.0547626ZM33.2167 3.94618C29.2838 3.94618 27.3167 8.64671 27.3151 18.0478C27.3151 27.3881 29.3126 32.0583 33.3077 32.0583C37.3029 32.0583 39.3005 27.4337 39.3005 18.1844C39.3005 8.69225 37.2726 3.94618 33.2167 3.94618Z" fill="#3E66FB"/>
<path d="M46.8494 35.3098V0.699069H54.5848C58.8529 0.699069 61.7348 1.40115 63.2301 2.80531C64.124 3.59407 64.8362 4.56744 65.3178 5.65831C65.7994 6.74918 66.0387 7.9316 66.0195 9.12403C66.0195 13.1544 64.0979 15.8709 60.2545 17.2735C64.6772 18.494 66.8886 21.4078 66.8886 26.015C66.8886 28.7306 65.9581 31.0078 64.097 32.846C62.3891 34.4945 59.7516 35.3189 56.1842 35.3189L46.8494 35.3098ZM50.9196 15.4837H54.7168C59.5355 15.4837 61.9448 13.4693 61.9448 9.44054C61.9448 7.51571 61.3381 6.15708 60.1247 5.36468C59.1783 4.75747 57.5007 4.45386 55.0921 4.45386H50.9287L50.9196 15.4837ZM50.9196 31.555H55.4493C60.3591 31.555 62.8139 29.571 62.8139 25.6028C62.8139 21.3599 60.2066 19.2348 54.9921 19.2272H50.9196V31.555Z" fill="#3E66FB"/>
<path d="M80.3366 0.0547626C86.9844 0.0547626 90.3084 6.03726 90.3084 18.0022C90.3084 29.9672 86.923 35.9497 80.1523 35.9497C73.3846 35.9497 70 30.0128 69.9984 18.1389C69.9984 6.08278 73.4445 0.0547626 80.3366 0.0547626ZM80.0613 3.94618C76.1283 3.94618 74.1618 8.64671 74.1618 18.0478C74.1618 27.3881 76.1587 32.0583 80.1523 32.0583C84.1458 32.0583 86.1441 27.4337 86.1471 18.1844C86.1471 8.69225 84.1186 3.94618 80.0613 3.94618Z" fill="#3E66FB"/>
<path d="M113.137 10.1714H108.791C108.336 5.99083 106.827 3.90053 104.262 3.90053C99.8086 3.90053 97.5828 8.75362 97.5843 18.4598C97.5843 27.5238 99.7191 32.0566 103.989 32.0581C106.763 32.0581 108.577 29.7234 109.431 25.0541H113.779C112.527 32.3178 109.386 35.9496 104.355 35.9496C97.064 35.9496 93.4193 30.0293 93.4208 18.1889C93.4208 12.8166 94.3051 8.45153 96.0736 5.0937C97.8422 1.6979 100.587 0 104.307 0C109.463 0 112.406 3.39048 113.137 10.1714Z" fill="#3E66FB"/>
<path d="M127.179 0.0547626C133.828 0.0547626 137.153 6.03726 137.153 18.0022C137.153 29.9672 133.768 35.9497 126.997 35.9497C120.226 35.9497 116.841 30.0128 116.841 18.1389C116.842 6.08278 120.288 0.0547626 127.179 0.0547626ZM126.906 3.94618C122.97 3.94618 121.003 8.64671 121.004 18.0478C121.004 27.3881 123.002 32.0583 126.997 32.0583C130.992 32.0583 132.99 27.4337 132.99 18.1844C132.991 8.69225 130.964 3.94618 126.908 3.94618H126.906Z" fill="#3E66FB"/>
<path d="M140.54 35.3098V0.699069H147.366C156.18 0.699069 160.586 6.46751 160.586 18.0044C160.586 23.6818 159.383 28.1538 156.974 31.4207C155.082 34.0149 152.092 35.312 148.005 35.312L140.54 35.3098ZM144.61 31.4229H147.723C150.772 31.4229 152.983 30.3542 154.355 28.2168C155.728 26.0795 156.414 22.6306 156.414 17.8701C156.414 9.01702 153.486 4.5905 147.63 4.5905H144.61V31.4229Z" fill="#3E66FB"/>
<path d="M163.963 35.3098V0.699069H184V4.5905H168.036V15.666H181.438V19.5596H168.036V31.4229H184V35.3143L163.963 35.3098Z" fill="#3E66FB"/>
</g>
<defs>
<clipPath id="clip0_5_1305">
<rect width="184" height="36" fill="white"/>
</clipPath>
</defs>
</svg>
